<mxfile host="app.diagrams.net" agent="Mozilla/5.0 (Windows NT 10.0; Win64; x64; rv:136.0) Gecko/20100101 Firefox/136.0" version="26.1.0">
  <diagram name="Seite-1" id="Z7NsKwJ51RfE67L4TIRY">
    <mxGraphModel dx="1050" dy="566" grid="1" gridSize="10" guides="1" tooltips="1" connect="1" arrows="1" fold="1" page="1" pageScale="1" pageWidth="827" pageHeight="1169" math="0" shadow="0">
      <root>
        <mxCell id="0" />
        <mxCell id="1" parent="0" />
        <mxCell id="VjmohAXIiEdZfGoULRXa-1" value="HE &amp;lt; ZW" style="rounded=0;whiteSpace=wrap;html=1;" vertex="1" parent="1">
          <mxGeometry x="40" y="120" width="120" height="40" as="geometry" />
        </mxCell>
        <mxCell id="VjmohAXIiEdZfGoULRXa-8" style="edgeStyle=orthogonalEdgeStyle;rounded=0;orthogonalLoop=1;jettySize=auto;html=1;exitX=1;exitY=0.5;exitDx=0;exitDy=0;" edge="1" parent="1" source="VjmohAXIiEdZfGoULRXa-2" target="VjmohAXIiEdZfGoULRXa-6">
          <mxGeometry relative="1" as="geometry" />
        </mxCell>
        <mxCell id="VjmohAXIiEdZfGoULRXa-2" value="HE &amp;gt; ZW" style="rounded=0;whiteSpace=wrap;html=1;" vertex="1" parent="1">
          <mxGeometry x="40" y="200" width="120" height="40" as="geometry" />
        </mxCell>
        <mxCell id="VjmohAXIiEdZfGoULRXa-9" style="edgeStyle=orthogonalEdgeStyle;rounded=0;orthogonalLoop=1;jettySize=auto;html=1;exitX=1;exitY=0.5;exitDx=0;exitDy=0;" edge="1" parent="1" source="VjmohAXIiEdZfGoULRXa-3" target="VjmohAXIiEdZfGoULRXa-7">
          <mxGeometry relative="1" as="geometry" />
        </mxCell>
        <mxCell id="VjmohAXIiEdZfGoULRXa-3" value="HE &amp;gt; ZW + Größe (Rüstung)" style="rounded=0;whiteSpace=wrap;html=1;" vertex="1" parent="1">
          <mxGeometry x="40" y="280" width="120" height="40" as="geometry" />
        </mxCell>
        <mxCell id="VjmohAXIiEdZfGoULRXa-4" value="&lt;div&gt;HE = Haupterfolg&lt;/div&gt;&lt;div&gt;NE = Nebenerfolg&lt;/div&gt;&lt;div&gt;ZW = Zielwert&lt;/div&gt;" style="text;html=1;align=left;verticalAlign=top;whiteSpace=wrap;rounded=0;" vertex="1" parent="1">
          <mxGeometry x="40" width="360" height="80" as="geometry" />
        </mxCell>
        <mxCell id="VjmohAXIiEdZfGoULRXa-5" value="" style="shape=sumEllipse;perimeter=ellipsePerimeter;whiteSpace=wrap;html=1;backgroundOutline=1;noLabel=1;fillColor=#f8cecc;strokeColor=#B85450;strokeWidth=5;" vertex="1" parent="1">
          <mxGeometry x="200" y="120" width="40" height="40" as="geometry" />
        </mxCell>
        <mxCell id="VjmohAXIiEdZfGoULRXa-6" value="NE &amp;lt; Schutz" style="rounded=0;whiteSpace=wrap;html=1;" vertex="1" parent="1">
          <mxGeometry x="240" y="200" width="120" height="40" as="geometry" />
        </mxCell>
        <mxCell id="VjmohAXIiEdZfGoULRXa-7" value="NE &amp;gt; Schutz" style="rounded=0;whiteSpace=wrap;html=1;" vertex="1" parent="1">
          <mxGeometry x="240" y="280" width="120" height="40" as="geometry" />
        </mxCell>
      </root>
    </mxGraphModel>
  </diagram>
</mxfile>
